<?xml version="1.0" encoding="UTF-8"?>
<!DOCTYPE svg PUBLIC "-//W3C//DTD SVG 1.1//EN" "http://www.w3.org/Graphics/SVG/1.1/DTD/svg11.dtd">
<!-- Creator: CorelDRAW X8 -->
<svg xmlns="http://www.w3.org/2000/svg" xml:space="preserve" width="2550px" height="3300px" version="1.1" style="shape-rendering:geometricPrecision; text-rendering:geometricPrecision; image-rendering:optimizeQuality; fill-rule:evenodd; clip-rule:evenodd"
viewBox="0 0 2550 3300"
 xmlns:xlink="http://www.w3.org/1999/xlink">
 <defs>
  <style type="text/css">
   <![CDATA[
    .fil2 {fill:#4D4D4D}
    .fil3 {fill:dimgray}
    .fil1 {fill:#A59155}
    .fil0 {fill:#FEFEFE}
   ]]>
  </style>
   <clipPath id="id0">
    <rect x="257" y="176" width="2010" height="810"/>
   </clipPath>
 </defs>
 <g id="Capa_x0020_1">
  <metadata id="CorelCorpID_0Corel-Layer"/>
  <g style="clip-path:url(#id0)">
   <image id="logo_x0020_orizontal_x0020_recortado_x0020_png.jpeg" x="257" y="176" width="2010" height="810" xlink:href="logo grupo de la rosa_Images\logo grupo de la rosa_ImgID1.png"/>
  </g>
  <polygon class="fil0" points="257,986 2267,986 2267,176 257,176 "/>
  <path class="fil1" d="M960 679c13,68 68,133 107,165 47,40 123,73 203,71 59,-2 67,-12 94,-42 123,-138 140,-351 32,-506 -15,-22 -44,-61 -65,-71 -30,-16 -90,-13 -125,-6 -82,14 -132,52 -176,97 -46,47 -70,109 -81,194l-582 1c9,-212 237,-335 413,-245 14,7 48,36 54,12 4,-17 -29,-31 -48,-40 -47,-22 -92,-31 -152,-29 -190,7 -339,199 -284,406 24,88 91,160 163,195 158,78 341,15 420,-138 10,-20 16,-46 27,-64z"/>
  <path class="fil0" d="M666 886c143,-3 272,-130 273,-275 -148,0 -313,-3 -459,0 8,10 22,14 34,21 13,8 22,14 34,24 70,55 109,133 118,230z"/>
  <path class="fil0" d="M1301 887l-59 -86c-39,-65 -75,-123 -146,-158 -26,-13 -85,-35 -118,-30 -4,82 58,166 97,200 48,44 134,86 226,74z"/>
  <path class="fil0" d="M645 886c0,-144 -133,-276 -277,-275 -1,80 41,150 84,193 45,44 110,80 193,82z"/>
  <path class="fil0" d="M979 582c47,-3 80,-13 117,-32 48,-25 87,-65 113,-109l92 -128c-96,-7 -169,20 -226,68 -40,35 -99,115 -96,201z"/>
  <path class="fil2" d="M1734 629c-112,27 -78,213 49,183 111,-27 79,-213 -49,-183z"/>
  <path class="fil0" d="M1328 869c20,-15 63,-74 74,-106 -22,-19 -46,-25 -78,-76 -33,-53 -38,-96 -47,-110 -12,17 -27,51 -35,75 -14,44 -16,37 0,81 21,57 49,99 86,136z"/>
  <path class="fil2" d="M1505 815l32 0 0 -86c57,0 65,65 82,86l24 0c-12,-46 -33,-65 -56,-91 12,-10 25,-11 34,-26 11,-17 7,-40 -5,-52 -23,-23 -71,-20 -111,-19l0 188z"/>
  <path class="fil2" d="M2103 282c-91,24 -56,161 37,137 82,-20 56,-160 -37,-137z"/>
  <path class="fil0" d="M1739 644c-64,28 -43,189 41,154 61,-25 44,-193 -41,-154z"/>
  <path class="fil0" d="M1335 660c45,-24 78,-107 69,-141 -3,-9 -25,-29 -35,-35 -22,11 -71,47 -74,70 -1,14 18,64 25,82 2,5 3,8 6,13 5,9 3,6 9,11z"/>
  <path class="fil0" d="M1263 425c40,4 66,12 97,29 32,17 45,36 68,58 -8,-58 -69,-163 -100,-181 -13,10 -61,69 -65,94z"/>
  <path class="fil2" d="M2021 815c34,0 20,-37 43,-67l60 0 28 66 34 1c-15,-44 -41,-98 -60,-143 -5,-12 -13,-39 -24,-46 -11,8 -34,75 -42,92 -10,24 -33,73 -39,97z"/>
  <path class="fil0" d="M1223 646c17,-49 47,-107 82,-141 13,-12 31,-22 43,-35 -31,-12 -54,-27 -97,-25 -24,41 -42,149 -28,201z"/>
  <path class="fil0" d="M1060 595c14,10 42,16 77,40 15,9 58,42 60,52 3,-27 -18,-97 4,-185 -33,32 -79,78 -141,93z"/>
  <path class="fil2" d="M1659 421l25 0 0 -64c40,0 44,35 60,64l20 1c-12,-32 -20,-48 -42,-69 7,-5 19,-8 25,-19 8,-13 6,-30 -2,-39 -17,-18 -58,-15 -86,-14l0 140z"/>
  <path class="fil0" d="M2112 291c-52,10 -48,134 19,120 47,-10 47,-134 -19,-120z"/>
  <path class="fil0" d="M1345 679c8,21 44,53 66,64 18,-43 49,-158 14,-195 -14,26 1,67 -80,131z"/>
  <path class="fil2" d="M1891 771l-8 8c9,23 50,46 83,32 27,-12 44,-53 20,-83 -15,-18 -60,-33 -71,-52 -15,-28 20,-48 45,-28 2,1 17,24 19,6 2,-14 -46,-44 -77,-14 -21,19 -23,56 14,81 20,13 69,30 52,65 -6,13 -24,20 -44,14 -14,-5 -25,-19 -33,-29z"/>
  <path class="fil2" d="M1933 421l24 0 0 -64c37,0 76,-1 65,-48 -7,-32 -52,-29 -89,-28l0 140z"/>
  <path class="fil2" d="M1510 571c44,3 84,0 85,-47 1,-47 -39,-59 -85,-51l0 98z"/>
  <path class="fil2" d="M1631 360l-24 0c0,32 1,56 -37,51 -48,-6 -46,-98 -13,-116 24,-13 47,0 57,15 10,-15 -7,-24 -21,-28 -96,-27 -124,139 -20,140 46,0 57,-20 58,-62z"/>
  <path class="fil2" d="M1893 281c-17,32 25,120 -39,128 -64,9 -37,-79 -43,-129l-23 1c-1,23 -3,76 -1,98 3,58 106,58 112,-3 2,-16 1,-35 1,-52 0,-8 0,-17 0,-26 0,-15 3,-14 -7,-17z"/>
  <path class="fil0" d="M1527 564c34,0 51,-4 50,-43 -1,-35 -16,-44 -50,-43l0 86z"/>
  <path class="fil0" d="M1537 716c33,0 54,-3 55,-37 1,-38 -20,-37 -54,-39l-1 76z"/>
  <path class="fil3" d="M1812 572c15,-10 8,-18 19,-35l30 -1c13,19 4,34 29,36 5,-11 -4,-26 -16,-52 -7,-17 -13,-39 -23,-48 -10,7 -43,89 -39,100z"/>
  <path class="fil2" d="M1616 492l-1 78c14,1 49,5 58,-4 -9,-4 -27,-1 -41,-3l1 -40c13,-2 18,2 26,-5 -7,-5 -16,-2 -27,-4l1 -36 41 0c-11,-11 -44,-6 -59,-6l1 20z"/>
  <path class="fil0" d="M1684 347c23,2 40,-4 41,-26 3,-28 -15,-32 -41,-29l0 55z"/>
  <path class="fil2" d="M1728 489l0 82c15,0 57,5 69,-5 -10,-4 -38,-2 -52,-3 0,-17 4,-80 -4,-91l-10 0c-1,3 -2,2 -2,7 -1,3 -1,7 -1,10z"/>
  <path class="fil0" d="M1957 347c25,2 40,-1 41,-26 0,-25 -16,-31 -41,-30l0 56z"/>
  <polygon class="fil0" points="2067,735 2118,736 2094,674 "/>
 </g>
</svg>
